<svg width="512" height="512" xmlns="http://www.w3.org/2000/svg" viewBox="0 0 512 512">
  <defs>
    <linearGradient id="bgGradient3" x1="0%" y1="0%" x2="100%" y2="100%">
      <stop offset="0%" stop-color="#EF4444" stop-opacity="0.9"/>
      <stop offset="100%" stop-color="#F87171" stop-opacity="0.7"/>
    </linearGradient>
    <linearGradient id="cardGradient3" x1="0%" y1="0%" x2="0%" y2="100%">
      <stop offset="0%" stop-color="#ffffff" stop-opacity="0.95"/>
      <stop offset="100%" stop-color="#f8fafc" stop-opacity="0.98"/>
    </linearGradient>
    <filter id="shadow3" x="-20%" y="-20%" width="140%" height="140%">
      <feDropShadow dx="2" dy="4" stdDeviation="8" flood-color="#000000" flood-opacity="0.2"/>
    </filter>
  </defs>
  
  <rect width="512" height="512" fill="url(#bgGradient3)"/>
  
  <g transform="translate(40, 40)" filter="url(#shadow3)">
    <rect x="0" y="0" width="432" height="432" rx="20" fill="url(#cardGradient3)"/>
    
    <rect x="0" y="0" width="432" height="80" rx="20" fill="#EF4444"/>
    <text x="216" y="45" text-anchor="middle" fill="white" font-family="Arial, sans-serif" font-size="18" font-weight="bold">
      Solution Design 4
    </text>
    
    <g transform="translate(166, 120)">
      <rect x="0" y="0" width="100" height="100" rx="12" fill="#F87171" opacity="0.8"/>
      <circle cx="50" cy="40" r="15" fill="white"/>
      <rect x="20" y="65" width="60" height="8" rx="4" fill="white"/>
      <rect x="30" y="80" width="40" height="6" rx="3" fill="white" opacity="0.7"/>
    </g>
    
    <g transform="translate(40, 250)">
      <text x="0" y="0" fill="#1f2937" font-family="Arial, sans-serif" font-size="14" font-weight="bold">
        Concept Généré par IA:
      </text>
      <text x="0" y="25" fill="#4b5563" font-family="Arial, sans-serif" font-size="12" width="352">
        <tspan x="0" dy="0">Prompt optimisé pour génération dimage IA</tspan><tspan x="0" dy="1.2em">Value Engineering  Domaine Bureau </tspan><tspan x="0" dy="1.2em">Professionnel --- Titre du produit  d ...</tspan>
      </text>
    </g>
    
    <g transform="translate(40, 320)">
      <rect x="0" y="0" width="352" height="2" fill="#e5e7eb"/>
      
      <g transform="translate(0, 20)">
        <circle cx="8" cy="8" r="4" fill="#EF4444"/>
        <text x="25" y="12" fill="#374151" font-family="Arial, sans-serif" font-size="11">
          Design innovant et fonctionnel
        </text>
      </g>
      
      <g transform="translate(0, 45)">
        <circle cx="8" cy="8" r="4" fill="#EF4444"/>
        <text x="25" y="12" fill="#374151" font-family="Arial, sans-serif" font-size="11">
          Optimisé pour la fabrication
        </text>
      </g>
      
      <g transform="translate(0, 70)">
        <circle cx="8" cy="8" r="4" fill="#EF4444"/>
        <text x="25" y="12" fill="#374151" font-family="Arial, sans-serif" font-size="11">
          Spécifications techniques détaillées
        </text>
      </g>
    </g>
    
    <g transform="translate(40, 410)">
      <text x="0" y="0" fill="#6b7280" font-family="Arial, sans-serif" font-size="10">
        Généré par l'IA • 25/11/2025
      </text>
      <text x="352" y="0" text-anchor="end" fill="#EF4444" font-family="Arial, sans-serif" font-size="10" font-weight="bold">
        CONCEPT 4
      </text>
    </g>
  </g>
</svg>